<svg width="393" height="96" viewBox="0 0 393 96" fill="none" xmlns="http://www.w3.org/2000/svg">
<path d="M393 96H0V0.00107717H141.436C144.379 -0.0221336 147.305 0.450139 150.103 1.39961C152.624 2.2762 155.013 3.51901 157.2 5.0912C161.526 8.14571 165.231 12.3118 168.813 16.3373C172.481 20.4641 176.283 24.7306 180.8 27.892C183.097 29.5236 185.605 30.809 188.248 31.7102C191.212 32.698 194.307 33.1881 197.419 33.1622C200.535 33.1877 203.635 32.6965 206.603 31.7069C209.251 30.8024 211.763 29.5133 214.066 27.8779C218.593 24.7143 222.401 20.4401 226.084 16.3078C229.668 12.2868 233.374 8.12608 237.693 5.07157C239.874 3.50296 242.257 2.26239 244.771 1.38652C247.559 0.442305 250.475 -0.0255688 253.406 0.00107717H393V96Z" fill="white"/>
</svg>
