<svg width="33" height="36" viewBox="0 0 33 36" fill="none" xmlns="http://www.w3.org/2000/svg">
<rect x="0.273438" width="32.7273" height="36" rx="10" fill="#14A223" fill-opacity="0.15"/>
<path d="M22.4224 8H10.5216C9.73252 8 8.97576 8.3448 8.4178 8.95856C7.85985 9.57232 7.54639 10.4047 7.54639 11.2727V24.3636C7.54639 25.2316 7.85985 26.064 8.4178 26.6778C8.97576 27.2916 9.73252 27.6364 10.5216 27.6364H22.4224C23.2115 27.6364 23.9683 27.2916 24.5262 26.6778C25.0842 26.064 25.3976 25.2316 25.3976 24.3636V11.2727C25.3976 10.4047 25.0842 9.57232 24.5262 8.95856C23.9683 8.3448 23.2115 8 22.4224 8V8ZM23.91 24.3636C23.91 24.7976 23.7533 25.2138 23.4743 25.5207C23.1953 25.8276 22.817 26 22.4224 26H10.5216C10.1271 26 9.74868 25.8276 9.4697 25.5207C9.19072 25.2138 9.03399 24.7976 9.03399 24.3636V11.2727C9.03399 10.8387 9.19072 10.4225 9.4697 10.1156C9.74868 9.80877 10.1271 9.63636 10.5216 9.63636H22.4224C22.817 9.63636 23.1953 9.80877 23.4743 10.1156C23.7533 10.4225 23.91 10.8387 23.91 11.2727V24.3636Z" fill="#14A223"/>
<path d="M14.5667 21.7892L14.5676 21.79C14.7532 21.9876 15.0033 22.1 15.2572 22.1H15.2573H15.2574H15.2575H15.2576H15.2577H15.2578H15.2579H15.258H15.2581H15.2582H15.2584H15.2585H15.2586H15.2587H15.2588H15.2589H15.259H15.2591H15.2592H15.2593H15.2595H15.2596H15.2597H15.2598H15.2599H15.26H15.2601H15.2602H15.2603H15.2604H15.2605H15.2607H15.2608H15.2609H15.261H15.2611H15.2612H15.2613H15.2614H15.2615H15.2616H15.2618H15.2619H15.262H15.2621H15.2622H15.2623H15.2624H15.2625H15.2626H15.2627H15.2628H15.263H15.2631H15.2632H15.2633H15.2634H15.2635H15.2636H15.2637H15.2638H15.2639H15.2641H15.2642H15.2643H15.2644H15.2645H15.2646H15.2647H15.2648H15.2649H15.265H15.2651H15.2653H15.2654H15.2655H15.2656H15.2657H15.2658H15.2659H15.266H15.2661H15.2662H15.2663H15.2665H15.2666H15.2667H15.2668H15.2669H15.267H15.2671H15.2672H15.2673H15.2674H15.2676H15.2677H15.2678H15.2679H15.268H15.2681H15.2682H15.2683H15.2684H15.2685H15.2686H15.2688H15.2689H15.269H15.2691H15.2692H15.2693H15.2694H15.2695H15.2696H15.2697H15.2699H15.27H15.2701H15.2702H15.2703H15.2704H15.2705H15.2706H15.2707H15.2708H15.2709H15.2711H15.2712H15.2713H15.2714H15.2715H15.2716H15.2717H15.2718H15.2719H15.272H15.2722H15.2723H15.2724H15.2725H15.2726H15.2727H15.2728H15.2729H15.273H15.2731H15.2732H15.2734H15.2735H15.2736H15.2737H15.2738H15.2739H15.274H15.2741H15.2742H15.2743H15.2745H15.2746H15.2747H15.2748H15.2749H15.275H15.2751H15.2752H15.2753H15.2754H15.2755H15.2757H15.2758H15.2759H15.276H15.2761H15.2762H15.2763H15.2764H15.2765H15.2766H15.2768H15.2769H15.277H15.2771H15.2772H15.2773H15.2774H15.2775H15.2776H15.2777H15.2778H15.278H15.2781H15.2782H15.2783H15.2784H15.2785H15.2786H15.2787H15.2788H15.2789H15.2791H15.2792H15.2793H15.2794H15.2795H15.2796H15.2797H15.2798H15.2799H15.28H15.2801H15.2803H15.2804H15.2805H15.2806H15.2807H15.2808H15.2809H15.281H15.2811H15.2812H15.2814H15.2815H15.2816H15.2817H15.2818H15.2819H15.282H15.2821H15.2822H15.2823H15.2824H15.2826H15.2827H15.2828H15.2829H15.283H15.2831H15.2832H15.2833H15.2834H15.2835H15.2837H15.2838H15.2839H15.284H15.2841H15.2842H15.2843H15.2844H15.2845H15.2846H15.2847H15.2849H15.285H15.2851H15.2852H15.2853H15.2854H15.2855H15.2856H15.2857H15.2858H15.286H15.2861H15.2862H15.2863H15.2864H15.2865H15.2866H15.2867H15.2868H15.2869H15.287H15.2872H15.2873H15.2874H15.2875H15.2876H15.2877H15.2878H15.2879H15.288H15.2881H15.2882H15.2884H15.2885H15.2886H15.2887H15.2888H15.2889H15.289H15.2891H15.2892H15.2893H15.2895H15.2896H15.2897H15.2898H15.2899H15.29H15.2901H15.2902H15.2903H15.2904H15.2905H15.2907H15.2908H15.2909H15.291H15.2911H15.2912H15.2913H15.2914H15.2915H15.2916H15.2918H15.2919H15.292H15.2921H15.2922H15.2923H15.2924H15.2925H15.2926H15.2927H15.2928H15.293H15.2931H15.2932H15.2933H15.2934H15.2935H15.2936H15.2937H15.2938H15.2939H15.2941H15.2942H15.2943H15.2944H15.2945H15.2946H15.2947H15.2948H15.2949H15.295H15.2951H15.2953H15.2954H15.2955H15.2956H15.2957H15.2958H15.2959H15.296H15.2961H15.2962H15.2964H15.2965H15.2966H15.2967H15.2968H15.2969H15.297H15.2971H15.2972H15.2973H15.2974H15.2976H15.2977H15.2978H15.2979H15.298H15.2981H15.2982H15.2983H15.2984H15.2985H15.2987H15.2988H15.2989H15.299H15.2991H15.2992H15.2993H15.2994H15.2995H15.2996H15.2997H15.2999H15.3H15.3001H15.3002H15.3003H15.3004H15.3005H15.3006H15.3007H15.3008H15.301H15.3011H15.3012H15.3013H15.3014H15.3015H15.3016H15.3017H15.3018H15.3019H15.302H15.3022H15.3023H15.3024H15.3025H15.3026H15.3027H15.3028H15.3029H15.303H15.3031H15.3033H15.3034H15.3035H15.3036H15.3037H15.3038H15.3039H15.304H15.3041H15.3042H15.3043H15.3045H15.3046H15.3047H15.3048H15.3049H15.305H15.3051H15.3052H15.3053H15.3054H15.3056H15.3057H15.3058H15.3059H15.306H15.3061H15.3062H15.3063H15.3064H15.3065H15.3066H15.3068H15.3069H15.307H15.3071H15.3072H15.3073H15.3074H15.3075H15.3076H15.3077H15.3079H15.308H15.3081H15.3082H15.3083H15.3084H15.3085H15.3086H15.3087H15.3088H15.3089H15.3091H15.3092H15.3093H15.3094H15.3095H15.3096H15.3097H15.3098H15.3099H15.31H15.3102H15.3103H15.3104H15.3105H15.3106H15.3107H15.3108H15.3109H15.311H15.3111H15.3112H15.3114H15.3115H15.3116H15.3117H15.3118H15.3119H15.312H15.3121H15.3122H15.3123H15.3124H15.3126H15.3127H15.3128H15.3129H15.313H15.3131H15.3132V22.1003L15.3208 22.0997C15.6099 22.0777 15.8627 21.9445 16.0307 21.6991C16.0309 21.6989 16.031 21.6986 16.0312 21.6984L21.0947 14.5396L21.0948 14.5396L21.0961 14.5376C21.4029 14.0805 21.3251 13.4447 20.9076 13.1112C20.4673 12.7544 19.8598 12.8686 19.5484 13.3104L19.5484 13.3105L15.172 19.5337L13.6494 17.8755C13.2742 17.4547 12.6658 17.4539 12.2895 17.8522C11.8944 18.2307 11.8978 18.8885 12.2685 19.2835C12.2686 19.2837 12.2688 19.2838 12.2689 19.284L14.5667 21.7892Z" fill="#14A223" stroke="#6171C8" stroke-width="0.2"/>
</svg>
