<svg width="24" height="24" viewBox="0 0 24 24" fill="none" xmlns="http://www.w3.org/2000/svg">
<mask id="mask0_402_5228" style="mask-type:alpha" maskUnits="userSpaceOnUse" x="0" y="0" width="24" height="24">
<rect width="24" height="24" fill="#D9D9D9"/>
</mask>
<g mask="url(#mask0_402_5228)">
<path d="M11.0011 19.9995C10.7177 19.9995 10.4802 19.9037 10.2886 19.712C10.0969 19.5203 10.0011 19.2828 10.0011 18.9995V12.9995L4.20106 5.59951C3.95106 5.26618 3.91356 4.91618 4.08856 4.54951C4.26356 4.18284 4.56772 3.99951 5.00106 3.99951H19.0011C19.4344 3.99951 19.7386 4.18284 19.9136 4.54951C20.0886 4.91618 20.0511 5.26618 19.8011 5.59951L14.0011 12.9995V18.9995C14.0011 19.2828 13.9052 19.5203 13.7136 19.712C13.5219 19.9037 13.2844 19.9995 13.0011 19.9995H11.0011ZM12.0011 12.2995L16.9511 5.99951H7.05106L12.0011 12.2995Z" fill="#233972"/>
</g>
</svg>
