<svg width="85" height="85" viewBox="0 0 85 85" fill="none" xmlns="http://www.w3.org/2000/svg">
<g clip-path="url(#clip0_135_3905)">
<path d="M34.8247 28.7889V23.2141C34.8247 18.9998 38.2695 16.728 42.4992 16.728C46.729 16.728 50.1737 18.9998 50.1737 23.2141V28.7889H54.9935V23.2141C54.9935 16.3415 49.3876 11.8943 42.4992 11.8943C35.6108 11.8943 30.0061 16.3415 30.0061 23.2141V28.7889H34.8247Z" fill="#ABBADB"/>
<path d="M31.0965 27.7275H53.9036C57.2367 27.7275 59.9424 30.4328 59.9424 33.7654V44.6102H25.0571V33.7654C25.0571 30.4328 27.7628 27.7275 31.096 27.7275H31.0965Z" fill="#3D447A"/>
<path d="M42.4998 41.7083C43.9838 41.7083 45.1868 40.5055 45.1868 39.0218C45.1868 37.538 43.9838 36.3352 42.4998 36.3352C41.0158 36.3352 39.8127 37.538 39.8127 39.0218C39.8127 40.5055 41.0158 41.7083 42.4998 41.7083Z" fill="#2E3369"/>
<path d="M43.9671 40.1359H41.0324L40.4827 43.4968H44.5174L43.9671 40.1359Z" fill="#2E3369"/>
<path d="M23.4175 65.6393H30.5077V73.9897L41.5125 65.6393H61.6388C67.715 65.6393 72.66 60.6855 72.66 54.591L72.618 54.3496C72.618 48.2726 67.6731 43.329 61.59 43.329L23.3608 43.371C17.2846 43.371 12.3396 48.3146 12.3396 54.3904L12.3804 54.6612C12.3804 60.7387 17.3282 65.6387 23.4169 65.6387L23.4175 65.6393ZM55.3953 53.1771L56.5747 51.1343L58.8412 52.4422V49.8259H61.2006V52.4422L63.4666 51.1343L64.646 53.1771L62.3806 54.485L64.646 55.7929L63.4666 57.8363L61.2006 56.5284V59.1436H58.8412V56.5284L56.5747 57.8363L55.3953 55.7929L57.6607 54.485L55.3953 53.1771ZM43.7155 53.1771L44.8949 51.1343L47.1608 52.4422V49.8259H49.5197V52.4422L51.7862 51.1343L52.9656 53.1771L50.7003 54.485L52.9656 55.7929L51.7862 57.8363L49.5197 56.5284V59.1436H47.1608V56.5284L44.8949 57.8363L43.7155 55.7929L45.9808 54.485L43.7155 53.1771ZM32.0351 53.1771L33.2145 51.1343L35.481 52.4422V49.8259H37.8404V52.4422L40.1058 51.1343L41.2852 53.1771L39.0199 54.485L41.2852 55.7929L40.1058 57.8363L37.8404 56.5284V59.1436H35.481V56.5284L33.2145 57.8363L32.0351 55.7929L34.3005 54.485L32.0351 53.1771ZM20.3553 53.1771L21.5347 51.1343L23.8006 52.4422V49.8259H26.1601V52.4422L28.426 51.1343L29.6054 53.1771L27.3401 54.485L29.6054 55.7929L28.426 57.8363L26.1601 56.5284V59.1436H23.8006V56.5284L21.5347 57.8363L20.3553 55.7929L22.6206 54.485L20.3553 53.1771Z" fill="#FDC007"/>
<path d="M42.4106 85C39.1676 85 35.9286 84.6288 32.783 83.8967C29.5638 83.1476 26.4314 82.0176 23.4717 80.5381C22.9503 80.274 22.4005 79.9821 21.8366 79.6705C19.4613 78.3394 17.1852 76.7561 15.0604 74.957L15.2509 78.6749L12.3156 78.825L11.8718 70.155L20.5433 69.7113L20.6935 72.6461L17.0968 72.8302C19.0391 74.4594 21.1112 75.8948 23.266 77.1035C23.78 77.388 24.2947 77.6611 24.7928 77.9132C30.223 80.6281 36.3157 82.0635 42.4112 82.0635H42.4129C53.6546 82.063 64.3953 77.3075 71.8811 69.0171C83.7615 55.8569 85.4238 36.2219 75.9226 21.2676L75.7668 21.0222L78.2475 19.4463L78.4034 19.6917C88.609 35.7567 86.8243 56.8497 74.062 70.9857C70.2562 75.2006 65.713 78.5598 60.5577 80.9693C55.5238 83.3227 50.1531 84.66 44.5949 84.9439C43.87 84.9807 43.1344 85 42.4089 85H42.4106Z" fill="#233972"/>
<path d="M6.59543 65.3066C-3.61081 49.2416 -1.82551 28.1486 10.9368 14.0125C18.9775 5.10737 30.5099 0 42.578 0C45.8215 0 49.0617 0.371733 52.2089 1.105C55.4293 1.85527 58.5629 2.9869 61.5225 4.46873C62.0196 4.709 62.562 4.99403 63.1775 5.338C65.5477 6.66627 67.8192 8.24613 69.94 10.0408L69.7502 6.33533L72.6854 6.18517L73.1292 14.8552L64.4578 15.2989L64.3076 12.3641L67.9178 12.1794C65.975 10.5485 63.9006 9.11143 61.743 7.90217C61.1802 7.58767 60.6837 7.327 60.2246 7.10487C54.7798 4.37863 48.6763 2.93873 42.5706 2.93873C31.3374 2.93873 20.6024 7.6925 13.1188 15.9817C1.23783 29.1408 -0.424478 48.7764 9.07614 63.7313L9.232 63.9767L6.75072 65.552L6.59486 65.3066H6.59543Z" fill="#233972"/>
</g>
<defs>
<clipPath id="clip0_135_3905">
<rect width="85" height="85" fill="white"/>
</clipPath>
</defs>
</svg>
